#!OML:ASF H:\Terrain\Walking\May29\JustinRory\Justin.ASF
:FULLY-SPECIFIED
:DEGREES
598
root 18.3428 17.0801 -3.68734 -23.703 -76.2045 22.7152
lowerback 7.6478 -4.98225 -7.77406
upperback 1.68836 -7.2521 1.08846
thorax -1.40176 -3.63656 6.03514
lowerneck -0.308125 -12.1707 -17.285
upperneck 14.2114 -17.7747 11.5321
head 6.96857 -9.03355 5.00052
rclavicle -9.54166e-015 -1.51076e-014
rhumerus -27.3829 12.2861 -92.4011
rradius 52.2828
rwrist -18.873
rhand -12.2849 23.6062
rfingers 7.12502
rthumb 13.7824 -5.91723
lclavicle -9.54166e-015 -1.51076e-014
lhumerus -21.5318 -11.0791 88.1746
lradius 59.8025
lwrist -1.81872
lhand 3.75535 33.1751
lfingers 7.12502
lthumb 29.1821 60.9074
rfemur -10.8124 11.3402 -1.75617
rtibia 29.0824
rfoot -14.1397 -5.25895
rtoes -6.29473
lfemur -3.65308 5.57504 -10.8246
ltibia 30.1067
lfoot -18.2734 2.17876
ltoes -25.0281
599
root 18.3585 17.104 -3.55685 -17.7022 -77.6305 17.4531
lowerback 6.7689 -5.05811 -5.94274
upperback 1.48927 -7.14455 1.61819
thorax -1.29678 -3.5831 5.49137
lowerneck -0.408704 -12.067 -17.5801
upperneck 14.5154 -17.6059 11.3456
head 7.06897 -8.97597 4.99352
rclavicle -2.43511e-014 2.46493e-014
rhumerus -27.3743 9.8538 -91.494
rradius 50.6677
rwrist -19.5477
rhand -12.1278 22.729
rfingers 7.12502
rthumb 13.9338 -6.78411
lclavicle -2.43511e-014 2.46493e-014
lhumerus -21.7704 -10.67 88.3668
lradius 59.0621
lwrist -2.48625
lhand 4.2399 33.3057
lfingers 7.12502
lthumb 29.6447 60.9567
rfemur -12.0298 11.8432 -0.0972569
rtibia 29.1192
rfoot -13.3984 -7.1529
rtoes -5.97452
lfemur -4.84178 6.27613 -9.58885
ltibia 31.054
lfoot -18.6717 2.83152
ltoes -26.158
600
root 18.3632 17.123 -3.43999 -16.2319 -77.9456 16.2638
lowerback 6.40459 -5.09756 -5.59889
upperback 1.4883 -7.15107 1.73552
thorax -1.12213 -3.59346 5.38424
lowerneck -0.461992 -12.1051 -17.6655
upperneck 14.6157 -17.6497 11.3006
head 7.12138 -9.00186 4.97959
rclavicle 3.37437e-014 3.18055e-015
rhumerus -27.396 7.73535 -90.5527
rradius 49.0544
rwrist -20.3025
rhand -12.677 21.8784
rfingers 7.12502
rthumb 13.4046 -7.6703
lclavicle 3.37437e-014 3.18055e-015
lhumerus -21.9645 -10.8526 88.6896
lradius 58.3409
lwrist -3.16868
lhand 4.5444 33.4038
lfingers 7.12502
lthumb 29.9353 61.0028
rfemur -12.257 11.5614 0.297529
rtibia 29.0369
rfoot -12.8406 -8.83082
rtoes -3.40123
lfemur -5.52431 6.70115 -9.64065
ltibia 31.9812
lfoot -19.2795 2.86403
ltoes -26.5228
601
root 18.3688 17.1375 -3.30849 -10.4607 -78.5426 10.4952
lowerback 6.29383 -5.11868 -4.08766
upperback 1.48344 -7.07339 2.06187
thorax -1.21896 -3.55397 4.87706
lowerneck -0.502497 -12.187 -17.7683
upperneck 14.726 -17.7464 11.1931
head 7.17908 -9.05775 4.94092
rclavicle 1.56543e-014 7.95139e-015
rhumerus -27.7829 7.70813 -89.864
rradius 47.5898
rwrist -23.1045
rhand -14.8698 21.1346
rfingers 7.12502
rthumb 11.2904 -8.54148
lclavicle 1.56543e-014 7.95139e-015
lhumerus -22.4176 -11.3903 89.105
lradius 57.8265
lwrist -3.6514
lhand 4.82643 33.7865
lfingers 7.12502
lthumb 30.2044 61.3366
rfemur -12.3745 11.2137 1.83661
rtibia 29.0831
rfoot -12.4143 -10.6317
rtoes -1.55613
lfemur -5.7637 7.50577 -8.57715
ltibia 32.4962
lfoot -19.7639 2.41073
ltoes -26.2464
602
root 18.3743 17.1544 -3.17486 -0.117803 -79.2495 -0.0845833
lowerback 6.36093 -5.13965 -1.78061
upperback 1.52858 -6.95495 2.70583
thorax -1.41783 -3.49964 4.27347
lowerneck -0.631025 -12.2724 -18.1236
upperneck 14.9326 -17.8236 11.0533
head 7.30192 -9.1155 4.92115
rclavicle -1.02871e-014 -7.15625e-015
rhumerus -27.9391 2.16936 -88.4099
rradius 46.4202
rwrist -20.9307
rhand -14.8442 19.7465
rfingers 7.12502
rthumb 11.315 -9.92832
lclavicle -1.02871e-014 -7.15625e-015
lhumerus -22.8137 -11.3194 89.6824
lradius 57.3706
lwrist -4.45004
lhand 4.92472 34.0564
lfingers 7.12502
lthumb 30.2982 61.5893
rfemur -12.3947 11.0207 4.42504
rtibia 29.0769
rfoot -11.7069 -12.6432
rtoes -2.45893
lfemur -5.61652 7.75206 -6.65476
ltibia 32.7596
lfoot -20.1294 2.29771
ltoes -24.2039
603
root 18.3591 17.1839 -3.06023 -7.39154 -79.4488 7.39239
lowerback 6.03855 -5.1044 -3.18496
upperback 1.56556 -6.99127 2.39223
thorax -1.06874 -3.52257 4.68533
lowerneck -0.919724 -12.399 -18.4507
upperneck 15.2067 -17.9611 11.054
head 7.49466 -9.18723 4.92194
rclavicle 5.00937e-014 -1.66979e-014
rhumerus -28.2076 -1.66355 -87.0898
rradius 45.2971
rwrist -19.647
rhand -15.336 18.1921
rfingers 7.12502
rthumb 10.8407 -11.5081
lclavicle 5.00937e-014 -1.66979e-014
lhumerus -22.9442 -10.7867 90.0923
lradius 56.7572
lwrist -5.67646
lhand 5.04802 34.0668
lfingers 7.12502
lthumb 30.4158 61.578
rfemur -12.4272 10.2005 3.0877
rtibia 29.0879
rfoot -11.1076 -14.0561
rtoes -2.64785
lfemur -5.42841 6.59796 -8.89135
ltibia 32.8032
lfoot -20.4906 3.42814
ltoes -20.917
604
root 18.3496 17.2055 -2.93798 -9.64532 -79.7362 9.4677
lowerback 6.01364 -5.10507 -3.34547
upperback 1.75208 -7.00523 2.17691
thorax -0.868771 -3.53747 4.53766
lowerneck -1.31155 -12.5503 -18.6577
upperneck 15.4783 -18.1421 11.184
head 7.71295 -9.2618 4.93452
rclavicle -1.92821e-014 -3.18055e-015
rhumerus -28.4967 -4.72613 -86.1059
rradius 44.0153
rwrist -18.1689
rhand -14.9084 19.0301
rfingers 7.12502
rthumb 11.2531 -10.6481
lclavicle -1.92821e-014 -3.18055e-015
lhumerus -22.9563 -10.4963 90.183
lradius 56.1435
lwrist -6.96049
lhand 5.31371 34.4382
lfingers 7.12502
lthumb 30.6691 61.9022
rfemur -12.1827 9.37696 2.95676
rtibia 29.0179
rfoot -10.4506 -15.6056
rtoes -2.58977
lfemur -4.87492 5.54326 -9.94513
ltibia 32.746
lfoot -20.8068 4.41198
ltoes -17.8305
605
root 18.3594 17.2312 -2.83578 -8.61198 -80.4505 8.55212
lowerback 5.94703 -4.91936 -3.12418
upperback 1.80812 -6.74399 2.16915
thorax -0.827346 -3.40837 4.38641
lowerneck -1.2577 -12.6855 -18.266
upperneck 15.1792 -18.3193 11.1553
head 7.59169 -9.32452 4.85304
rclavicle -9.47209e-014 2.3059e-014
rhumerus -29.0831 -7.43591 -85.0872
rradius 43.2701
rwrist -17.3974
rhand -14.1643 20.3182
rfingers 7.12502
rthumb 11.9707 -9.31953
lclavicle -9.47209e-014 2.3059e-014
lhumerus -23.1016 -11.0983 90.3665
lradius 55.7727
lwrist -7.52611
lhand 5.11578 34.9002
lfingers 7.12502
lthumb 30.4804 62.3994
rfemur -12.6667 8.9154 3.54691
rtibia 29.1143
rfoot -9.93841 -17.3986
rtoes -0.30434
lfemur -4.65044 5.22577 -10.1648
ltibia 32.4498
lfoot -20.8511 4.91609
ltoes -14.5637
606
root 18.3622 17.259 -2.71256 -4.35062 -81.168 4.07888
lowerback 6.21592 -4.78011 -2.15601
upperback 1.87866 -6.50831 2.293
thorax -1.02083 -3.28739 3.99361
lowerneck -1.10153 -12.6997 -17.9684
upperneck 14.8496 -18.3471 11.1766
head 7.43365 -9.32446 4.83138
rclavicle -9.3727e-014 2.94201e-014
rhumerus -29.9488 -9.15829 -84.0015
rradius 42.8566
rwrist -17.4749
rhand -15.6057 18.2706
rfingers 7.12502
rthumb 10.5805 -11.443
lclavicle -9.3727e-014 2.94201e-014
lhumerus -23.6236 -11.8478 90.7379
lradius 55.7682
lwrist -7.11729
lhand 5.74967 34.6226
lfingers 7.12502
lthumb 31.0848 62.0079
rfemur -12.7002 8.44892 4.71862
rtibia 29.1307
rfoot -9.63884 -18.975
rtoes 3.16632
lfemur -4.16224 4.70591 -9.85191
ltibia 32.3491
lfoot -21.1504 5.39722
ltoes -9.49499
